# xmcd CD database file
#
# Track frame offsets:
#	150
#	13297
#	27847
#	40830
#	56175
#	69730
#	83977
#	98427
#	112962
#	131245
#	143792
#	155805
#	176095
#	189165
#	202675
#
# Disc length: 3185 seconds
#
# Revision: 0
# Processed by: cddbd v1.5.1PL2 Copyright (c) Steve Scherf et al.
# Submitted via: CDex 1.51
#
DISCID=cd0c6f0f
DTITLE=Various Artist - JAZZ and нк┴к (098) - Ella Fitzgerald
DYEAR=1900
DGENRE=Jazz
TTITLE0=Ella Fitzgerald and Chick Webb - Shine
TTITLE1=Ella Fitzgerald and Chick Webb - Rock It For Me
TTITLE2=Ella Fitzgerald and Louis Armstrong - You Won't Be Satisfied
TTITLE3=Ella Fitzgerald and The Song Spinners - I'm Confessin
TTITLE4=Ella Fitzgerald and Chick Webb - Just A Simple Melody
TTITLE5=Ella Fitzgerald and The Delta Rythm Boys - For Sentimental Reasons
TTITLE6=Ella Fitzgerald and Mills Brothers - Dedicated To You
TTITLE7=Ella Fitzgerald and Louis Armstrong - The Frin Fram Sauce
TTITLE8=Ella Fitzgerald and Chick Webb - Hallelujah
TTITLE9=Ella Fitzgerald and Mills Brothers - Big Boy Blues
TTITLE10=Ella Fitzgerald and Louis Jordan - Stone Cold Dead In The Market
TTITLE11=Ella Fitzgerald and Chick Webb - I Want To Be Happy
TTITLE12=Ella Fitzgerald and The Ink Spot - Cow Cow Boogle
TTITLE13=Ella Fitzgerald and Chick Webb - Chew Chew Chew
TTITLE14=Ella Fitzgerald - How High The Moon
EXTD=
EXTT0=
EXTT1=
EXTT2=
EXTT3=
EXTT4=
EXTT5=
EXTT6=
EXTT7=
EXTT8=
EXTT9=
EXTT10=
EXTT11=
EXTT12=
EXTT13=
EXTT14=
PLAYORDER=
